<svg xmlns="http://www.w3.org/2000/svg" viewBox="0 0 24 24" width="1024" height="1024">
  <path fill="#3B2A1E" fill-rule="evenodd" d="M4 5.25H20A2.25 2.25 0 0 1 22.25 7.5V16.5A2.25 2.25 0 0 1 20 18.75H4A2.25 2.25 0 0 1 1.75 16.5V7.5A2.25 2.25 0 0 1 4 5.25ZM4 6.75H20A0.75 0.75 0 0 1 20.75 7.5V16.5A0.75 0.75 0 0 1 20 17.25H4A0.75 0.75 0 0 1 3.25 16.5V7.5A0.75 0.75 0 0 1 4 6.75Z"/>
  <rect x="6.5" y="12" width="1.5" height="6" rx="0.75" fill="#3B2A1E"/>
  <rect x="11.25" y="12" width="1.5" height="6" rx="0.75" fill="#3B2A1E"/>
  <rect x="16" y="12" width="1.5" height="6" rx="0.75" fill="#3B2A1E"/>
  <rect x="5.45" y="6" width="3.6" height="6" rx="0.4" fill="#3B2A1E"/>
  <rect x="10.2" y="6" width="3.6" height="6" rx="0.4" fill="#3B2A1E"/>
  <rect x="14.95" y="6" width="3.6" height="6" rx="0.4" fill="#3B2A1E"/>
</svg>
