<svg xmlns="http://www.w3.org/2000/svg" width="1200" height="630" viewBox="0 0 1200 630">
  <defs>
    <linearGradient id="bg" x1="0" y1="0" x2="0" y2="1">
      <stop offset="0%" stop-color="#161926"/>
      <stop offset="100%" stop-color="#0f111a"/>
    </linearGradient>
  </defs>
  <rect width="1200" height="630" fill="url(#bg)"/>
  <g transform="translate(600,260)" text-anchor="middle">
    <path d="M-14 -50 L-14 -50" fill="none" stroke="#9180fa" stroke-width="1.5" stroke-linecap="round" stroke-linejoin="round">
      <animate attributeName="d" dur="0s" fill="freeze"/>
    </path>
    <svg x="-22" y="-70" width="44" height="44" viewBox="0 0 24 24" fill="none" stroke="#9180fa" stroke-width="1.5" stroke-linecap="round" stroke-linejoin="round">
      <path d="M9 9l10.5-3m0 6.553v3.75a2.25 2.25 0 01-1.632 2.163l-1.32.377a1.803 1.803 0 11-.99-3.467l2.31-.66a2.25 2.25 0 001.632-2.163zm0 0V2.25L9 5.25v10.303m0 0v3.75a2.25 2.25 0 01-1.632 2.163l-1.32.377a1.803 1.803 0 01-.99-3.467l2.31-.66A2.25 2.25 0 009 15.553z"/>
    </svg>
    <text y="10" font-family="Georgia, 'Times New Roman', serif" font-size="56" font-weight="700" fill="#e8e6f0">Intrada</text>
    <text y="60" font-family="system-ui, -apple-system, sans-serif" font-size="22" fill="#8b8a9a">Music practice with intent.</text>
  </g>
</svg>
