<svg xmlns="http://www.w3.org/2000/svg" width="1024" height="1024" viewBox="0 0 1024 1024">
  <rect width="1024" height="1024" fill="#4544e9"/>
  <g transform="translate(212 212) scale(25)" fill="#ffffff">
    <path d="M19.952 1.651a.75.75 0 01.298.599V16.303a3 3 0 01-2.176 2.884l-1.32.377a2.553 2.553 0 11-1.403-4.909l2.311-.66a1.5 1.5 0 001.088-1.442V6.994l-9 2.572v9.737a3 3 0 01-2.176 2.884l-1.32.377a2.553 2.553 0 11-1.402-4.909l2.31-.66A1.5 1.5 0 008.25 15.553V4.5a.75.75 0 01.544-.721l10.5-3a.75.75 0 01.658.122z"/>
  </g>
</svg>
